<svg id="Ebene_1" data-name="Ebene 1" xmlns="http://www.w3.org/2000/svg" viewBox="0 0 96.78 94.39"><defs><style>.cls-1{fill:#221e1b;fill-rule:evenodd;}</style></defs><title>github</title><path class="cls-1" d="M49.94,3.13A48.4,48.4,0,0,0,34.65,97.44c2.42.44,3.3-1,3.3-2.33s0-4.19-.07-8.23c-13.46,2.92-16.3-6.49-16.3-6.49-2.2-5.59-5.37-7.08-5.37-7.08-4.39-3,.33-2.94.33-2.94,4.86.34,7.41,5,7.41,5,4.32,7.39,11.33,5.26,14.09,4a10.35,10.35,0,0,1,3.07-6.47c-10.75-1.22-22-5.37-22-23.92a18.67,18.67,0,0,1,5-13c-.5-1.23-2.16-6.15.47-12.81,0,0,4.07-1.3,13.31,5a45.84,45.84,0,0,1,24.23,0c9.24-6.26,13.29-5,13.29-5,2.64,6.66,1,11.58.48,12.81a18.63,18.63,0,0,1,5,13c0,18.59-11.32,22.68-22.1,23.88,1.74,1.5,3.29,4.45,3.29,9,0,6.47-.06,11.69-.06,13.28,0,1.29.87,2.8,3.33,2.32A48.4,48.4,0,0,0,49.94,3.13Z" transform="translate(-1.55 -3.13)"/></svg>